<?xml version="1.0" encoding="UTF-8"?>
<svg width="44px" height="44px" viewBox="0 0 44 44" version="1.1" xmlns="http://www.w3.org/2000/svg" xmlns:xlink="http://www.w3.org/1999/xlink">
    <title>navigation_kurozora</title>
    <defs>
        <filter x="-27.9%" y="-27.3%" width="155.8%" height="154.5%" filterUnits="objectBoundingBox" id="filter-1">
            <feOffset dx="0" dy="2" in="SourceAlpha" result="shadowOffsetOuter1"></feOffset>
            <feGaussianBlur stdDeviation="2" in="shadowOffsetOuter1" result="shadowBlurOuter1"></feGaussianBlur>
            <feColorMatrix values="0 0 0 0 0   0 0 0 0 0   0 0 0 0 0  0 0 0 0.15 0" type="matrix" in="shadowBlurOuter1" result="shadowMatrixOuter1"></feColorMatrix>
            <feMerge>
                <feMergeNode in="shadowMatrixOuter1"></feMergeNode>
                <feMergeNode in="SourceGraphic"></feMergeNode>
            </feMerge>
        </filter>
        <linearGradient x1="98.9576999%" y1="100%" x2="1.04230011%" y2="0%" id="linearGradient-2">
            <stop stop-color="#B8B8B8" offset="0%"></stop>
            <stop stop-color="#FFFFFF" offset="100%"></stop>
        </linearGradient>
        <linearGradient x1="99.2278108%" y1="100%" x2="0.772189171%" y2="0%" id="linearGradient-3">
            <stop stop-color="#FFFFFF" stop-opacity="0.3" offset="0%"></stop>
            <stop stop-color="#FCFCFC" offset="100%"></stop>
        </linearGradient>
        <linearGradient x1="100%" y1="91.4663518%" x2="0%" y2="8.53364822%" id="linearGradient-4">
            <stop stop-color="#FFFFFF" stop-opacity="0.3" offset="0%"></stop>
            <stop stop-color="#FCFCFC" offset="100%"></stop>
        </linearGradient>
    </defs>
    <g id="App-Icons" stroke="none" stroke-width="1" fill="none" fill-rule="evenodd">
        <g id="Navigation" fill-rule="nonzero">
            <g id="naviation_kurozora" filter="url(#filter-1)" transform="translate(0.500000, 0.000000)">
                <path d="M4.26356589,25.6953027 C4.25865611,30.1220323 6.11477477,34.3424354 9.36940612,37.3048315 C6.04486859,33.8984502 5.89762765,28.4720384 9.03244888,24.886623 C12.1672701,21.3012076 17.5136377,20.7811787 21.2674782,23.6965497 C25.0213187,26.6119208 25.9007262,31.9671163 23.2799805,35.9517818 C20.6592348,39.9364472 15.4332991,41.1898517 11.3205565,38.8201669 C13.8256676,40.4665942 16.7506698,41.3407107 19.7388593,41.3359375 C28.2881704,41.3359375 35.2170543,34.3335972 35.2170543,25.6953027 C35.2170543,17.0570082 28.2881704,10.0546875 19.7388593,10.0546875 C11.1924595,10.0546875 4.26356589,17.0575967 4.26356589,25.6953027 Z" id="Shape" fill="url(#linearGradient-2)"></path>
                <path d="M1.02325581,22.9450189 C1.02325581,24.4181799 1.17548672,25.8873356 1.47831164,27.3285372 C1.40322831,26.6431228 1.36549315,25.9540748 1.36527611,25.2644961 C1.36527611,14.9125812 9.69261577,6.5201841 19.9642832,6.5201841 C30.2359506,6.5201841 38.5632903,14.9143428 38.5632903,25.2644961 C38.5632903,35.2634982 30.7941364,43.4333429 21.0084053,43.9788605 C21.3090565,43.9917791 21.610873,44 21.9150202,44 C33.4516369,44 42.8062016,34.5735271 42.8062016,22.9450189 C42.8062016,11.3165107 33.4528022,1.890625 21.9150202,1.890625 C10.3784035,1.890625 1.02325581,11.3170979 1.02325581,22.9450189 Z" id="Shape" fill="url(#linearGradient-3)"></path>
                <path d="M0.937984496,12.890625 C3.00055919,6.51588805 8.78568735,1.96729358 15.0930233,0 C7.6776734,0 0.937984496,4.79560892 0.937984496,12.890625 Z" id="Shape" fill="url(#linearGradient-4)"></path>
            </g>
        </g>
    </g>
</svg>