<?xml version="1.0" encoding="UTF-8"?>
<svg viewBox="0 0 100 100" version="1.1" xmlns="http://www.w3.org/2000/svg">
    <path d="M95.1807229,12 C97.8423361,12 100,14.1433927 100,16.7874016 L100,83.2125984 C100,85.8566073 97.8423361,88 95.1807229,88 L4.81927711,88 C2.15766386,88 0,85.8566073 0,83.2125984 L0,16.7874016 C0,14.1433927 2.15766386,12 4.81927711,12 L95.1807229,12 Z M94.5783133,22.007874 L5.42168675,22.007874 C4.13120759,22.007874 3.07766333,22.9146263 3.01499717,24.0542215 L3.01204819,24.1617202 L3.01204819,82.8540279 C3.01204819,84.0075177 4.02648703,84.9492242 5.30142148,85.0052381 L5.42168675,85.007874 L94.5783133,85.007874 C95.8687924,85.007874 96.9223367,84.1011218 96.9850028,82.9615265 L96.9879518,82.8540279 L96.9879518,24.1617202 C96.9879518,23.0082303 95.973513,22.0665239 94.6985785,22.01051 L94.5783133,22.007874 Z M5,15 C3.97432832,15 3,15.8901041 3,16.9978239 C3,18.1055438 3.8954305,19 5,19 C6.02567168,19 7,18.1098959 7,17.0021761 C7,15.8944562 6.1045695,15 5,15 Z M11,15 C9.97432832,15 9,15.8901041 9,16.9978239 C9,18.1055438 9.8954305,19 11,19 C12.0256717,19 13,18.1098959 13,17.0021761 C13,15.8944562 12.1045695,15 11,15 Z M17,15 C15.9743283,15 15,15.8901041 15,16.9978239 C15,18.1055438 15.8954305,19 17,19 C18.0256717,19 19,18.1098959 19,17.0021761 C19,15.8944562 18.1045695,15 17,15 Z" />
</svg>
