<?xml version="1.1" encoding="UTF-8"?>
<svg fill-rule="evenodd" width="100px" height="100px" viewBox="0 0 100 100" xmlns="http://www.w3.org/2000/svg">
    <circle class="checkmark__circle" fill="none" cx="50" cy="50" r="49" />
    <path class="checkmark__check" fill="none" d="M44.43357,72.9981 C46.04497,72.9981 47.41207,72.2168 48.38867,70.7031 L70.70317,35.5957 C71.24027,34.668 71.87497,33.5449 71.87497,32.4707 C71.87497,30.3223 69.92187,28.9063 67.87107,28.9063 C66.65037,28.9063 65.42967,29.6387 64.50197,31.1035 L44.23827,63.5742 L34.61917,51.1719 C33.44727,49.6094 32.37307,49.1699 31.00587,49.1699 C28.90627,49.1699 27.24607,50.8789 27.24607,53.0762 C27.24607,54.1016 27.68557,55.1758 28.36917,56.1035 L40.28317,70.7031 C41.50387,72.3145 42.82227,72.9981 44.43357,72.9981 Z" />
</svg>
