<?xml version="1.0" encoding="UTF-8"?>
<svg viewBox="0 0 100 100" version="1.1" xmlns="http://www.w3.org/2000/svg">
    <path d="M22.3064 100H59.6825C67.889 100 72.031 95.8245 72.031 87.525V56.1368H44.2453C39.1504 56.1368 36.7672 53.7029 36.7672 48.6079V19.8426H22.3064C14.117 19.8426 10 24.0267 10 32.3176V87.525C10 95.858 14.0999 100 22.3064 100ZM44.2383 50.6985H71.3026C70.9146 49.1538 69.9935 47.6933 68.1959 45.8621L46.9997 24.2445C45.2106 22.4554 43.6994 21.2478 42.1633 20.8427V48.6235C42.1633 49.9873 42.8745 50.6985 44.2383 50.6985ZM77.4185 80.1574H78.9554C87.1198 80.1574 91.3042 75.9733 91.3042 67.6824V30.0035H69.2828C65.1495 30.0035 62.8161 27.6195 62.8161 23.5197V0H41.5879C33.525 0 29.2731 4.18415 29.2731 12.1799V14.4043H35.0342C40.6256 14.4043 45.1162 15.6962 49.5335 20.1557L72.13 42.6929C76.556 47.1609 77.4185 51.803 77.4185 57.2343V80.1574ZM70.0587 24.9867H90.8449C90.6168 23.7456 89.7552 22.6395 88.3536 21.2384L71.5392 4.06915C70.1716 2.65943 69.0148 1.80626 67.7908 1.61186L67.833 22.7103C67.833 24.3348 68.4427 24.9867 70.0587 24.9867Z" />
</svg>
