<?xml version="1.0" encoding="UTF-8"?>
<svg viewBox="0 0 100 100" version="1.1" xmlns="http://www.w3.org/2000/svg">
    <path d="M50,100 C77.5980392,100 100,77.5980392 100,50 C100,22.4019608 77.5980392,0 50,0 C22.4019608,0 0,22.4019608 0,50 C0,77.5980392 22.4019608,100 50,100 Z M50,91.6666667 C26.9607843,91.6666667 8.33333333,73.0392157 8.33333333,50 C8.33333333,26.9607843 26.9607843,8.33333333 50,8.33333333 C73.0392157,8.33333333 91.6666667,26.9607843 91.6666667,50 C91.6666667,73.0392157 73.0392157,91.6666667 50,91.6666667 Z M49.9509804,26.0784314 C52.254902,26.0784314 54.1666667,24.1666667 54.1666667,21.8627451 C54.1666667,19.5588235 52.254902,17.6470588 49.9509804,17.6470588 C47.6470588,17.6470588 45.7352941,19.5588235 45.7352941,21.8627451 C45.7352941,24.1666667 47.6470588,26.0784314 49.9509804,26.0784314 Z M30.0490196,34.5098039 C32.3529412,34.5098039 34.2647059,32.5980392 34.2647059,30.2941176 C34.2647059,27.9411765 32.3529412,26.0784314 30.0490196,26.0784314 C27.745098,26.0784314 25.8333333,27.9411765 25.8333333,30.2941176 C25.8333333,32.5980392 27.745098,34.5098039 30.0490196,34.5098039 Z M42.0588235,57.5490196 C45.245098,60.7352941 49.8529412,60.7352941 53.0882353,57.5490196 C53.6764706,56.9607843 54.6078431,55.6372549 55.1960784,54.8529412 L71.6666667,31.0784314 C72.5,29.9019608 72.254902,28.7745098 71.5686275,28.0392157 C70.8333333,27.3529412 69.6568627,27.1078431 68.4803922,27.8921569 L44.7058824,44.4117647 C43.9215686,44.9509804 42.6470588,45.8823529 42.0588235,46.4705882 C38.8235294,49.7058824 38.8235294,54.3137255 42.0588235,57.5490196 Z M21.7647059,54.2156863 C24.0686275,54.2156863 25.9803922,52.3039216 25.9803922,50 C25.9803922,47.6960784 24.0686275,45.7843137 21.7647059,45.7843137 C19.4607843,45.7843137 17.5490196,47.6960784 17.5490196,50 C17.5490196,52.3039216 19.4607843,54.2156863 21.7647059,54.2156863 Z M78.0392157,54.2156863 C80.3431373,54.2156863 82.254902,52.3039216 82.254902,50 C82.254902,47.6960784 80.3431373,45.7843137 78.0392157,45.7843137 C75.7352941,45.7843137 73.8235294,47.6960784 73.8235294,50 C73.8235294,52.3039216 75.7352941,54.2156863 78.0392157,54.2156863 Z M30.0490196,73.9215686 C32.3529412,73.9215686 34.2647059,72.0098039 34.2647059,69.7058824 C34.2647059,67.4019608 32.3529412,65.4901961 30.0490196,65.4901961 C27.745098,65.4901961 25.8333333,67.4019608 25.8333333,69.7058824 C25.8333333,72.0098039 27.745098,73.9215686 30.0490196,73.9215686 Z M69.754902,73.9215686 C72.0588235,73.9215686 73.9705882,72.0098039 73.9705882,69.7058824 C73.9705882,67.4019608 72.0588235,65.4901961 69.754902,65.4901961 C67.4509804,65.4901961 65.5392157,67.4019608 65.5392157,69.7058824 C65.5392157,72.0098039 67.4509804,73.9215686 69.754902,73.9215686 Z" />
</svg>
