<?xml version="1.0" encoding="UTF-8"?>
<svg viewBox="0 0 100 100" version="1.1" xmlns="http://www.w3.org/2000/svg">
    <path d="M95.1807229,12 C97.8423361,12 100,14.1433927 100,16.7874016 L100,83.2125984 C100,85.8566073 97.8423361,88 95.1807229,88 L4.81927711,88 C2.15766386,88 0,85.8566073 0,83.2125984 L0,16.7874016 C0,14.1433927 2.15766386,12 4.81927711,12 L95.1807229,12 Z M94.5783133,14.992126 L5.42168675,14.992126 C4.13120759,14.992126 3.07766333,15.9998551 3.01499717,17.266357 L3.01204819,17.3858268 L3.01204819,82.6141732 C3.01204819,83.8961169 4.02648703,84.9426929 5.30142148,85.0049445 L5.42168675,85.007874 L94.5783133,85.007874 C95.8687924,85.007874 96.9223367,84.0001449 96.9850028,82.733643 L96.9879518,82.6141732 L96.9879518,17.3858268 C96.9879518,16.1038831 95.973513,15.0573071 94.6985785,14.9950555 L94.5783133,14.992126 Z" />
</svg>
