<?xml version="1.0" encoding="UTF-8"?>
<svg viewBox="0 0 100 100" version="1.1" xmlns="http://www.w3.org/2000/svg">
    <path d="M93.8271605,26 C97.1785432,26 99.9061307,28.6625666 99.9976285,31.981597 L100,67.8461538 C100,71.1872246 97.3292156,73.9064195 93.9999413,73.9976358 L6.17283951,74 C2.82145684,74 0.09386931,71.3374334 0.00237147996,68.018403 L0,32.1538462 C0,28.8127754 2.67078444,26.0935805 6.00005874,26.0023642 L93.8271605,26 Z M93.8271605,28.4615385 L6.17283951,28.4615385 C4.12734043,28.4615385 2.4691358,30.1146409 2.4691358,32.1538462 L2.4691358,39.5384615 L3.08641975,39.5384615 C4.79100231,39.5384615 6.17283951,40.9160469 6.17283951,42.6153846 L6.17283951,58 C6.17283951,59.6993377 4.79100231,61.0769231 3.08641975,61.0769231 L2.4691358,61.0769231 L2.4691358,67.8461538 C2.4691358,69.8853591 4.12734043,71.5384615 6.17283951,71.5384615 L93.8271605,71.5384615 C95.8726596,71.5384615 97.5308642,69.8853591 97.5308642,67.8461538 L97.5308642,32.1538462 C97.5308642,30.1146409 95.8726596,28.4615385 93.8271605,28.4615385 Z M3.08641975,47.5384615 C2.74550324,47.5384615 2.4691358,47.8139786 2.4691358,48.1538462 L2.4691358,53.0769231 C2.4691358,53.4167906 2.74550324,53.6923077 3.08641975,53.6923077 C3.42733627,53.6923077 3.7037037,53.4167906 3.7037037,53.0769231 L3.7037037,48.1538462 C3.7037037,47.8139786 3.42733627,47.5384615 3.08641975,47.5384615 Z M3.08574813,45.0769231 C2.76952723,45.0769231 2.4691358,45.3508013 2.4691358,45.6916381 C2.4691358,46.032475 2.74520255,46.3076923 3.08574813,46.3076923 C3.40196903,46.3076923 3.70236046,46.0338141 3.70236046,45.6929772 C3.70236046,45.3521404 3.42629372,45.0769231 3.08574813,45.0769231 Z" />
</svg>
