<?xml version="1.0" encoding="UTF-8"?>
<svg viewBox="0 0 100 100" version="1.1" xmlns="http://www.w3.org/2000/svg">
<path d="M31.095 0.054717C30.9644 0.0643866 30.5535 0.117569 30.1909 0.165917C27.2997 0.572039 24.8532 1.73239 23.0209 3.57444C21.0773 5.52286 19.9701 8.03695 19.709 11.0925C19.6413 11.8758 19.6462 88.1735 19.709 88.9568C19.8589 90.6973 20.2409 92.1284 20.9371 93.5498C22.7066 97.1566 25.9411 99.3129 30.5148 99.9414C31.1095 100.024 32.1731 100.028 50.0232 100.028C67.8732 100.028 68.9368 100.024 69.5315 99.9414C72.795 99.4966 75.2124 98.3508 77.1753 96.325C78.9013 94.541 79.9795 92.1381 80.2986 89.3677C80.3905 88.5458 80.3905 11.4116 80.2986 10.6574C80.1342 9.34234 79.7426 7.88707 79.2785 6.85726C77.5138 2.93625 73.8683 0.518857 69.048 0.0692214C68.5501 0.0257083 31.7186 0.0112039 31.095 0.054717ZM68.1053 7.72269C69.5074 8.00794 70.4695 8.46725 71.2285 9.22631C71.9876 9.98537 72.4421 10.9185 72.6548 12.1465C72.7467 12.688 72.7467 13.2392 72.7467 50.0029C72.7467 82.2654 72.737 87.3758 72.6741 87.7723C72.326 90.0736 70.9723 91.6062 68.7918 92.1719C67.7185 92.4475 69.0287 92.4282 50.7484 92.4475C39.7202 92.462 33.6864 92.4475 33.0917 92.4185C31.7283 92.3411 30.9209 92.1477 30.0071 91.6836C28.3778 90.852 27.4785 89.3532 27.2997 87.1679C27.2368 86.3943 27.2368 13.713 27.2997 12.9007C27.5414 9.7678 29.3351 7.9741 32.5357 7.66467C32.7533 7.6405 40.7549 7.62599 50.3132 7.63083C66.5195 7.6405 67.7233 7.64533 68.1053 7.72269Z" />
<path d="M43.7476 11.0007C42.5631 11.1989 41.5526 12.0305 41.1465 13.1425C40.8225 14.0369 40.9047 15.0377 41.3785 15.9418C41.6203 16.4108 42.2585 17.0152 42.771 17.2714C43.5252 17.6389 43.0804 17.6195 50.028 17.6195C56.0569 17.6195 56.2552 17.6147 56.6178 17.5228C57.2125 17.3729 57.6283 17.1312 58.0972 16.6574C58.7741 15.9757 59.069 15.265 59.0739 14.3077C59.0787 13.4568 58.8273 12.7557 58.2955 12.1224C57.986 11.7549 57.43 11.3488 57.0046 11.1892C56.3664 10.9475 56.4099 10.9523 49.999 10.9572C46.7016 10.9572 43.8878 10.9765 43.7476 11.0007Z" />
<path d="M39.4495 84.6538C38.6469 84.8279 38.0619 85.3935 37.8588 86.1768C37.7525 86.5877 37.7863 87.2549 37.9314 87.6272C38.1344 88.1542 38.6034 88.628 39.1449 88.8504L39.4108 88.9568H50.0715H60.7322L61.0948 88.7827C61.8636 88.4105 62.2987 87.6901 62.3035 86.8005C62.3035 85.7948 61.8104 85.0551 60.9063 84.707L60.6355 84.6055L50.1924 84.5958C41.5381 84.591 39.6961 84.6006 39.4495 84.6538Z" />
</svg>
