<?xml version="1.0" encoding="UTF-8"?>
<svg viewBox="0 0 100 100" version="1.1" xmlns="http://www.w3.org/2000/svg">
    <path d="M87.5544845,24 C89.5181247,24 91.1099695,25.5918764 91.1099695,27.5555556 L91.1097483,72.8888889 L99.5548988,72.8888889 C100.00583,72.8888889 100.161169,73.4733994 99.7995625,73.7048306 L99.7536743,73.7308476 C96.8298916,75.1929321 94.0366754,75.9502923 91.3756331,75.9976329 L91.1099695,76 L9.33381387,76 C6.29916254,76 3.26861783,75.2423488 0.246309434,73.7308394 C-0.156989858,73.5291424 -0.0344979103,72.9368937 0.392423625,72.8916344 L0.445101304,72.8888889 L9.33359263,72.8888889 L9.33381387,27.5555556 C9.33381387,25.5918764 10.9256587,24 12.8892989,24 L87.5544845,24 Z M88.4433558,26.6666667 L12.0002064,26.6666667 L12.0002064,72.8888889 L88.4433558,72.8888889 L88.4433558,26.6666667 Z" />
</svg>
