<?xml version="1.0" encoding="UTF-8"?>
<svg viewBox="0 0 100 100" version="1.1" xmlns="http://www.w3.org/2000/svg">
    <path d="M50.1922388,50.0540199 C63.0431053,50.0540199 73.5183142,38.6068957 73.5183142,24.6760743 C73.5183142,10.8531821 63.0971805,0 50.1922388,0 C37.3952263,0 26.8660529,11.069151 26.8660529,24.7840035 C26.9200174,38.6609709 37.3412618,50.0540199 50.1922388,50.0540199 Z M50.1922388,41.9007251 C42.3087669,41.9007251 35.5593251,34.3412618 35.5593251,24.7840035 C35.5593251,15.3887495 42.2008378,8.15340535 50.1922388,8.15340535 C58.2374939,8.15340535 64.825042,15.2808203 64.825042,24.6760743 C64.825042,34.2333326 58.1295647,41.9007251 50.1922388,41.9007251 Z M16.2289502,100 L84.1014523,100 C93.0647685,100 97.3304025,97.3002343 97.3304025,91.3607145 C97.3304025,77.2138468 79.4578452,56.7494971 50.1922388,56.7494971 C20.8725574,56.7494971 3,77.2138468 3,91.3607145 C3,97.3002343 7.26563397,100 16.2289502,100 Z M13.6910672,91.8466721 C12.2872143,91.8466721 11.6932722,91.4686989 11.6932722,90.3347905 C11.6932722,81.4795029 25.4081248,64.9027919 50.1922388,64.9027919 C74.9221672,64.9027919 88.6371303,81.4795029 88.6371303,90.3347905 C88.6371303,91.4686989 88.0971528,91.8466721 86.6932999,91.8466721 L13.6910672,91.8466721 Z" />
</svg>
