<?xml version="1.0" encoding="UTF-8"?>
<svg viewBox="0 0 100 100" version="1.1" xmlns="http://www.w3.org/2000/svg">
    <path d="M34.274793,88.9305747 C30.8499712,88.9305747 28.2486752,88.071568 26.4709051,86.3535546 C24.693135,84.6355412 23.8042499,82.0845515 23.8042499,78.7005857 L36.9806637,67.2601781 C37.7388304,66.6354459 38.4904611,66.1603892 39.235556,65.8350079 C39.9806508,65.5096265 40.7322816,65.3469359 41.4904482,65.3469359 C42.3531896,65.3469359 43.1832514,65.5031189 43.9806336,65.815485 C44.7780158,66.1278511 45.5557902,66.6354459 46.3139568,67.3382696 L52.5884396,72.9999048 L68.4315086,59.0215228 C69.2419626,58.2926686 70.0850962,57.7655508 70.9609095,57.4401695 C71.8367227,57.1147882 72.7582873,56.9520975 73.7256034,56.9520975 C74.6667758,56.9520975 75.5948764,57.1278034 76.5099052,57.4792153 C77.4249339,57.8306271 78.2615316,58.3577449 79.0196983,59.0605685 L97.2156983,76.1626113 L97.2156983,78.6615399 C97.2156983,82.0715363 96.3268132,84.6355412 94.5490431,86.3535546 C92.771273,88.071568 90.169977,88.9305747 86.7451552,88.9305747 L34.274793,88.9305747 Z M49.7649224,59.9195753 C47.4642787,59.9195753 45.5035028,59.0996143 43.8825948,57.4596924 C42.2616867,55.8197705 41.4512327,53.8544672 41.4512327,51.5637827 C41.4512327,49.3251591 42.2616867,47.3858864 43.8825948,45.7459645 C45.5035028,44.1060426 47.4642787,43.2860816 49.7649224,43.2860816 C51.2812557,43.2860816 52.6668706,43.663524 53.9217672,44.4184086 C55.1766638,45.1732933 56.1831954,46.1819755 56.941362,47.444455 C57.6995287,48.7069346 58.078612,50.0800438 58.078612,51.5637827 C58.078612,53.8544672 57.2616221,55.8197705 55.6276422,57.4596924 C53.9936623,59.0996143 52.0394224,59.9195753 49.7649224,59.9195753 Z M6.74549991,68.9001 L0.314155078,32.6265892 C-0.391724233,28.6699522 0.0919338134,25.5202609 1.76512922,23.1775154 C3.43832462,20.8347698 6.28798554,19.2989699 10.314112,18.5701157 L63.0981982,9.31627065 C67.1243247,8.61344698 70.3203893,9.0819961 72.6863922,10.721918 C75.0523951,12.3618399 76.601408,15.1601194 77.333431,19.1167563 L79.607931,31.845674 L73.2158017,31.845674 L71.1765948,20.5224037 C70.8105833,18.5440852 70.0132011,17.1384379 68.7844482,16.3054616 C67.5556954,15.4724854 65.9870747,15.2121804 64.0785862,15.5245465 L11.529793,24.7393457 C9.59516083,25.0777423 8.19647405,25.8521499 7.33373267,27.0625684 C6.47099129,28.272987 6.22262635,29.8803708 6.58863784,31.8847198 L12.9023361,67.4944526 C13.2683476,69.4988016 14.0591939,70.9174642 15.2748749,71.7504405 C16.490556,72.5834167 18.0657126,72.8307065 20.0003448,72.4923099 L25.7650258,71.4771201 L25.7650258,77.841579 L20.9807327,78.7005857 C16.9284626,79.3773789 13.725862,78.9023221 11.372931,77.2754155 C9.01999991,75.6485088 7.4775229,72.856737 6.74549991,68.9001 Z M34.117931,91 C30.0133735,91 26.9349554,89.9913179 24.8826767,87.9739536 C22.8303979,85.9565894 21.8042585,82.930543 21.8042585,78.8958145 L21.8042585,42.0756631 C21.8042585,38.0409346 22.8303979,35.0148882 24.8826767,32.9975239 C26.9349554,30.9801597 30.0133735,29.9714775 34.117931,29.9714775 L87.6863276,29.9714775 C91.7647414,29.9714775 94.8366236,30.9866673 96.9019741,33.0170468 C98.9673247,35.0474263 100,38.0669651 100,42.0756631 L100,78.8958145 C100,82.930543 98.9673247,85.9565894 96.9019741,87.9739536 C94.8366236,89.9913179 91.7647414,91 87.6863276,91 L34.117931,91 Z M34.196362,84.7136327 L87.568681,84.7136327 C89.5033132,84.7136327 91.0065747,84.1995302 92.0784655,83.1713252 C93.1503563,82.1431202 93.6863017,80.6138279 93.6863017,78.5834484 L93.6863017,42.4270749 C93.6863017,40.3966954 93.1503563,38.8608955 92.0784655,37.8196753 C91.0065747,36.778455 89.5033132,36.2578449 87.568681,36.2578449 L34.196362,36.2578449 C32.2355861,36.2578449 30.7323246,36.778455 29.6865775,37.8196753 C28.6408304,38.8608955 28.1179568,40.3966954 28.1179568,42.4270749 L28.1179568,78.5834484 C28.1179568,80.6138279 28.6408304,82.1431202 29.6865775,83.1713252 C30.7323246,84.1995302 32.2355861,84.7136327 34.196362,84.7136327 Z" />
</svg>
